<?xml version="1.0" encoding="iso-8859-1"?>
<!-- Generator: Adobe Illustrator 19.0.0, SVG Export Plug-In . SVG Version: 6.00 Build 0)  -->
<svg version="1.1" id="Layer_1" xmlns="http://www.w3.org/2000/svg" xmlns:xlink="http://www.w3.org/1999/xlink" x="0px" y="0px"
	 viewBox="0 0 512 512" style="enable-background:new 0 0 512 512;" xml:space="preserve">
<g>
	<path style="fill:#F1F4FB;" d="M264.828,450.207c-107.086,0-194.207-87.121-194.207-194.207S157.741,61.793,264.828,61.793
		S459.034,148.914,459.034,256S371.914,450.207,264.828,450.207z M264.828,79.448C167.474,79.448,88.276,158.65,88.276,256
		s79.198,176.552,176.552,176.552S441.379,353.35,441.379,256S362.182,79.448,264.828,79.448z"/>
	<path style="fill:#F1F4FB;" d="M264.828,503.172C128.534,503.172,17.655,392.294,17.655,256S128.534,8.828,264.828,8.828
		S512,119.706,512,256S401.121,503.172,264.828,503.172z M264.828,26.483C138.268,26.483,35.31,129.444,35.31,256
		s102.957,229.517,229.517,229.517S494.345,382.556,494.345,256S391.388,26.483,264.828,26.483z"/>
	<path style="fill:#F1F4FB;" d="M264.828,397.241c-77.879,0-141.241-63.362-141.241-141.241s63.362-141.241,141.241-141.241
		S406.069,178.121,406.069,256S342.707,397.241,264.828,397.241z M264.828,132.414c-68.147,0-123.586,55.439-123.586,123.586
		s55.439,123.586,123.586,123.586S388.414,324.147,388.414,256S332.974,132.414,264.828,132.414z"/>
</g>
<g>
	<path style="fill:#FFEB64;" d="M203.034,264.828h-26.483c-4.879,0-8.828-3.953-8.828-8.828s3.948-8.828,8.828-8.828h26.483
		c4.879,0,8.828,3.953,8.828,8.828S207.914,264.828,203.034,264.828z"/>
	<path style="fill:#FFEB64;" d="M353.103,264.828h-26.483c-4.879,0-8.828-3.953-8.828-8.828s3.948-8.828,8.828-8.828h26.483
		c4.879,0,8.828,3.953,8.828,8.828S357.983,264.828,353.103,264.828z"/>
</g>
<g>
	<path style="fill:#FFF5B1;" d="M220.69,220.69c-2.259,0-4.518-0.862-6.241-2.586l-8.828-8.828c-3.448-3.448-3.448-9.035,0-12.483
		s9.035-3.448,12.483,0l8.828,8.828c3.448,3.448,3.448,9.035,0,12.483C225.207,219.828,222.948,220.69,220.69,220.69z"/>
	<path style="fill:#FFF5B1;" d="M300.138,211.862c0-2.259,0.862-4.518,2.586-6.241l8.828-8.828c3.448-3.448,9.035-3.448,12.483,0
		c3.448,3.448,3.448,9.035,0,12.483l-8.828,8.828c-3.448,3.448-9.035,3.448-12.483,0C301,216.38,300.138,214.121,300.138,211.862z"
		/>
	<path style="fill:#FFF5B1;" d="M308.966,291.31c2.259,0,4.518,0.862,6.241,2.586l8.828,8.828c3.448,3.448,3.448,9.035,0,12.483
		s-9.035,3.448-12.483,0l-8.828-8.828c-3.448-3.448-3.448-9.035,0-12.483C304.448,292.172,306.707,291.31,308.966,291.31z"/>
	<path style="fill:#FFF5B1;" d="M229.517,300.138c0,2.259-0.862,4.517-2.586,6.241l-8.828,8.828c-3.448,3.448-9.035,3.448-12.483,0
		c-3.448-3.448-3.448-9.035,0-12.483l8.828-8.828c3.448-3.448,9.035-3.448,12.483,0C228.655,295.62,229.517,297.879,229.517,300.138
		z"/>
</g>
<g>
	<circle style="fill:#FFEB64;" cx="264.828" cy="256" r="35.31"/>
	<path style="fill:#FFEB64;" d="M256,194.207v-26.483c0-4.879,3.953-8.828,8.828-8.828s8.828,3.948,8.828,8.828v26.483
		c0,4.879-3.953,8.828-8.828,8.828S256,199.086,256,194.207z"/>
	<path style="fill:#FFEB64;" d="M256,344.276v-26.483c0-4.879,3.953-8.828,8.828-8.828s8.828,3.948,8.828,8.828v26.483
		c0,4.879-3.953,8.828-8.828,8.828S256,349.155,256,344.276z"/>
</g>
<circle style="fill:#FF965F;" cx="264.828" cy="123.586" r="17.655"/>
<path style="fill:#FF7846;" d="M273.719,132.414c-9.751,0-17.655-7.905-17.655-17.655c0-2.607,0.599-5.062,1.613-7.289
	c-6.18,2.748-10.505,8.917-10.505,16.117c0,9.75,7.905,17.655,17.655,17.655c7.144,0,13.262-4.263,16.041-10.366
	C278.679,131.849,276.269,132.414,273.719,132.414z"/>
<circle style="fill:#FFDC6E;" cx="397.241" cy="388.414" r="26.483"/>
<path style="fill:#FFC85F;" d="M410.578,401.655c-14.626,0-26.483-11.857-26.483-26.483c0-3.911,0.899-7.593,2.421-10.934
	c-9.271,4.122-15.757,13.376-15.757,24.175c0,14.626,11.857,26.483,26.483,26.483c10.716,0,19.893-6.395,24.062-15.549
	C418.019,400.808,414.404,401.655,410.578,401.655z"/>
<circle style="fill:#5AC3FF;" cx="26.483" cy="256" r="26.483"/>
<path style="fill:#46A2DE;" d="M39.819,269.241c-14.626,0-26.483-11.857-26.483-26.483c0-3.911,0.899-7.593,2.421-10.934
	C6.486,235.947,0,245.201,0,256c0,14.626,11.857,26.483,26.483,26.483c10.716,0,19.893-6.394,24.062-15.549
	C47.261,268.394,43.646,269.241,39.819,269.241z"/>
<g>
</g>
<g>
</g>
<g>
</g>
<g>
</g>
<g>
</g>
<g>
</g>
<g>
</g>
<g>
</g>
<g>
</g>
<g>
</g>
<g>
</g>
<g>
</g>
<g>
</g>
<g>
</g>
<g>
</g>
</svg>
