<?xml version="1.0" encoding="iso-8859-1"?>
<!-- Generator: Adobe Illustrator 19.0.0, SVG Export Plug-In . SVG Version: 6.00 Build 0)  -->
<svg version="1.1" id="Layer_1" xmlns="http://www.w3.org/2000/svg" xmlns:xlink="http://www.w3.org/1999/xlink" x="0px" y="0px"
	 viewBox="0 0 512 512" style="enable-background:new 0 0 512 512;" xml:space="preserve">
<rect x="238.345" y="370.759" style="fill:#4B2E2E;" width="35.31" height="114.759"/>
<polygon style="fill:#CAE6EB;" points="282.483,370.759 229.517,370.759 211.862,88.276 256,0 300.138,88.276 "/>
<polygon style="fill:#B6D2DC;" points="229.517,370.759 256,370.759 256,0 211.862,88.276 "/>
<polygon style="fill:#DBEFEF;" points="264.828,361.931 264.828,158.897 256,114.759 247.172,158.897 247.172,361.931 "/>
<path style="fill:#FFC83C;" d="M270.236,512h-28.47c-6.025,0-10.28-5.903-8.374-11.619l4.953-14.863h35.31l4.954,14.863
	C280.515,506.097,276.26,512,270.236,512z"/>
<g>
	<polygon style="fill:#6C392C;" points="273.655,388.414 238.345,406.069 238.345,388.414 273.655,370.759 	"/>
	<polygon style="fill:#6C392C;" points="273.655,423.724 238.345,441.379 238.345,423.724 273.655,406.069 	"/>
	<polygon style="fill:#6C392C;" points="273.655,459.034 238.345,476.69 238.345,459.034 273.655,441.379 	"/>
</g>
<polygon style="fill:#FFC83C;" points="256,353.103 194.207,344.276 194.207,361.931 256,379.586 317.793,361.931 317.793,344.276 
	"/>
<g>
	<polygon style="fill:#FFB432;" points="256,353.103 194.207,344.276 194.207,361.931 256,379.586 	"/>
	<path style="fill:#FFB432;" d="M256,485.517h-17.655l-4.954,14.863c-1.906,5.716,2.349,11.619,8.375,11.619H256V485.517z"/>
</g>
<circle style="fill:#FF5A4E;" cx="256" cy="485.517" r="8.828"/>
<g>
</g>
<g>
</g>
<g>
</g>
<g>
</g>
<g>
</g>
<g>
</g>
<g>
</g>
<g>
</g>
<g>
</g>
<g>
</g>
<g>
</g>
<g>
</g>
<g>
</g>
<g>
</g>
<g>
</g>
</svg>
